<?xml version="1.0" encoding="utf-8"?>
<!-- Generator: Adobe Illustrator 17.0.0, SVG Export Plug-In . SVG Version: 6.00 Build 0)  -->
<!DOCTYPE svg PUBLIC "-//W3C//DTD SVG 1.1//EN" "http://www.w3.org/Graphics/SVG/1.1/DTD/svg11.dtd">
<svg version="1.1" id="图层_1" xmlns="http://www.w3.org/2000/svg" xmlns:xlink="http://www.w3.org/1999/xlink" x="0px" y="0px"
	 width="236.009px" height="170.394px" viewBox="0 0 236.009 170.394" enable-background="new 0 0 236.009 170.394"
	 xml:space="preserve">
<g>
	<defs>
		<polyline id="SVGID_1_" points="236.009,0.346 236.009,170.394 236.009,170.048 0,170.048 0,170.217 0,0 236.009,0 		"/>
	</defs>
	<clipPath id="SVGID_2_">
		<use xlink:href="#SVGID_1_"  overflow="visible"/>
	</clipPath>
	<g clip-path="url(#SVGID_2_)">
		<g>
			<path fill="none" stroke="#079D5C" stroke-width="2.4555" stroke-linecap="round" stroke-miterlimit="10" d="M0.525-18.441
				c-4.121,4.121-8.461-0.22-12.582,3.901c-4.122,4.122,0.219,8.463-3.904,12.585c-4.121,4.121-8.462-0.22-12.582,3.901
				c-4.124,4.124,0.217,8.464-3.907,12.588s-8.464-0.217-12.588,3.907"/>
			<g>
				
					<rect x="31.08" y="-4.294" transform="matrix(0.7071 0.7071 -0.7071 0.7071 14.2334 -26.6173)" fill="none" stroke="#079D5C" stroke-width="2.4555" stroke-linecap="round" stroke-miterlimit="10" width="16.333" height="16.333"/>
				
					<rect x="46.172" y="-16.72" transform="matrix(0.7071 0.7071 -0.7071 0.7071 18.4206 -44.4714)" fill="none" stroke="#079D5C" stroke-width="2.4555" stroke-linecap="round" stroke-miterlimit="10" width="33.44" height="33.44"/>
			</g>
			<path fill="none" stroke="#079D5C" stroke-width="2.4555" stroke-linecap="round" stroke-miterlimit="10" d="M236.534-18.441
				c-4.121,4.121-8.461-0.22-12.582,3.901c-4.122,4.122,0.219,8.463-3.904,12.585c-4.121,4.121-8.462-0.22-12.582,3.901
				c-4.124,4.124,0.217,8.464-3.907,12.588s-8.464-0.217-12.588,3.907"/>
			<g>
				<path fill="none" stroke="#079D5C" stroke-width="2.4555" stroke-miterlimit="10" d="M164.86-9.588l7.696,7.696
					c0.311,0.311,0.311,0.819,0,1.13l-28.779,28.779c-0.311,0.311-0.819,0.311-1.13,0L116.523,1.892
					c-0.311-0.311-0.311-0.819,0-1.13l28.779-28.779c0.311-0.311,0.819-0.311,1.13,0l7.696,7.696"/>
				<polyline fill="none" stroke="#079D5C" stroke-width="1.2277" stroke-linejoin="round" stroke-miterlimit="10" points="
					160.811,-5.539 164.986,-1.364 143.175,20.447 124.092,1.364 145.903,-20.447 150.078,-16.272 				"/>
				<g>
					<path fill="#079D5C" d="M137.063,12.859c-3.103-3.103-3.103-8.151,0-11.254c3.103-3.103,8.151-3.103,11.254,0
						s3.103,8.151,0,11.254S140.165,15.961,137.063,12.859z M147.566,2.355c-2.689-2.689-7.064-2.689-9.753,0
						c-2.689,2.689-2.689,7.064,0,9.753c2.689,2.689,7.064,2.689,9.753,0C150.255,9.419,150.255,5.044,147.566,2.355z"/>
					<polygon fill="#079D5C" points="147.865,7.232 144.98,8.655 144.517,11.839 142.272,9.535 139.101,10.079 140.598,7.232 
						139.101,4.384 142.272,4.928 144.517,2.625 144.98,5.808 					"/>
				</g>
				
					<line fill="none" stroke="#079D5C" stroke-width="1.2277" stroke-linejoin="round" stroke-miterlimit="10" x1="144.193" y1="-12.554" x2="157.093" y2="0.346"/>
				
					<line fill="none" stroke="#079D5C" stroke-width="1.2277" stroke-linejoin="round" stroke-miterlimit="10" x1="140.667" y1="-9.027" x2="153.566" y2="3.873"/>
				
					<line fill="none" stroke="#079D5C" stroke-width="1.2277" stroke-linejoin="round" stroke-miterlimit="10" x1="132.528" y1="-0.888" x2="134.644" y2="1.227"/>
			</g>
		</g>
		<g>
			<g>
				<path fill="none" stroke="#079D5C" stroke-width="2.4555" stroke-miterlimit="10" d="M107.743,75.436l7.696,7.696
					c0.311,0.311,0.311,0.819,0,1.13L86.66,113.041c-0.311,0.311-0.819,0.311-1.13,0L59.405,86.916c-0.311-0.311-0.311-0.819,0-1.13
					l28.779-28.779c0.311-0.311,0.819-0.311,1.13,0l7.696,7.696"/>
				<polyline fill="none" stroke="#079D5C" stroke-width="1.2277" stroke-linejoin="round" stroke-miterlimit="10" points="
					103.694,79.485 107.869,83.66 86.058,105.471 66.975,86.388 88.786,64.577 92.961,68.752 				"/>
				<path fill="none" stroke="#079D5C" stroke-width="1.2277" stroke-linejoin="round" stroke-miterlimit="10" d="M108.856,70.933
					l-7.343-7.343c-0.936-0.936-2.453-0.936-3.389,0l-0.235,0.235l-0.188,0.188l-6.1,6.1l10.732,10.732l6.1-6.1l0.188-0.188
					l0.235-0.235C109.792,73.386,109.792,71.868,108.856,70.933z"/>
				<g>
					<path fill="#079D5C" d="M79.945,97.882c-3.103-3.103-3.103-8.151,0-11.254c3.103-3.103,8.151-3.103,11.254,0
						c3.103,3.103,3.103,8.151,0,11.254C88.096,100.985,83.048,100.985,79.945,97.882z M90.449,87.379
						c-2.689-2.689-7.064-2.689-9.753,0s-2.689,7.064,0,9.753s7.064,2.689,9.753,0S93.138,90.068,90.449,87.379z"/>
					<polygon fill="#079D5C" points="90.748,92.256 87.863,93.679 87.4,96.863 85.155,94.559 81.984,95.103 83.481,92.256 
						81.984,89.408 85.155,89.952 87.4,87.648 87.863,90.832 					"/>
				</g>
				
					<line fill="none" stroke="#079D5C" stroke-width="1.2277" stroke-linejoin="round" stroke-miterlimit="10" x1="87.076" y1="72.47" x2="99.976" y2="85.37"/>
				
					<line fill="none" stroke="#079D5C" stroke-width="1.2277" stroke-linejoin="round" stroke-miterlimit="10" x1="83.549" y1="75.997" x2="96.449" y2="88.896"/>
				
					<line fill="none" stroke="#079D5C" stroke-width="1.2277" stroke-linejoin="round" stroke-miterlimit="10" x1="79.48" y1="80.066" x2="81.596" y2="82.182"/>
				
					<line fill="none" stroke="#079D5C" stroke-width="1.2277" stroke-linejoin="round" stroke-miterlimit="10" x1="75.411" y1="84.136" x2="77.526" y2="86.251"/>
			</g>
			<g>
				
					<rect x="-10.945" y="68.304" transform="matrix(0.7071 0.7071 -0.7071 0.7071 61.8124 20.8196)" fill="none" stroke="#079D5C" stroke-width="2.4555" stroke-linecap="round" stroke-miterlimit="10" width="33.44" height="33.44"/>
			</g>
			<path fill="none" stroke="#079D5C" stroke-width="2.4555" stroke-linecap="round" stroke-miterlimit="10" d="M179.417,66.583
				c-4.121,4.121-8.461-0.22-12.582,3.901c-4.122,4.122,0.219,8.463-3.904,12.585c-4.121,4.121-8.462-0.22-12.582,3.901
				c-4.124,4.124,0.217,8.464-3.907,12.588c-4.124,4.124-8.464-0.217-12.588,3.907"/>
			<g>
				
					<rect x="209.972" y="80.73" transform="matrix(0.7071 0.7071 -0.7071 0.7071 126.7506 -128.21)" fill="none" stroke="#079D5C" stroke-width="2.4555" stroke-linecap="round" stroke-miterlimit="10" width="16.333" height="16.333"/>
				
					<rect x="225.064" y="68.304" transform="matrix(0.7071 0.7071 -0.7071 0.7071 130.9378 -146.064)" fill="none" stroke="#079D5C" stroke-width="2.4555" stroke-linecap="round" stroke-miterlimit="10" width="33.44" height="33.44"/>
			</g>
		</g>
		<g>
			<g>
				<path fill="none" stroke="#079D5C" stroke-width="2.4555" stroke-miterlimit="10" d="M164.86,160.46l7.696,7.696
					c0.311,0.311,0.311,0.819,0,1.13l-28.779,28.779c-0.311,0.311-0.819,0.311-1.13,0l-26.125-26.125
					c-0.311-0.311-0.311-0.819,0-1.13l28.779-28.779c0.311-0.311,0.819-0.311,1.13,0l7.696,7.696"/>
				<polyline fill="none" stroke="#079D5C" stroke-width="1.2277" stroke-linejoin="round" stroke-miterlimit="10" points="
					160.811,164.509 164.986,168.684 143.175,190.495 124.092,171.412 145.903,149.601 150.078,153.776 				"/>
				<path fill="none" stroke="#079D5C" stroke-width="1.2277" stroke-linejoin="round" stroke-miterlimit="10" d="M165.974,155.956
					l-7.343-7.343c-0.936-0.936-2.453-0.936-3.389,0l-0.235,0.235l-0.188,0.188l-6.1,6.1l10.732,10.732l6.1-6.1l0.188-0.188
					l0.235-0.235C166.91,158.41,166.91,156.892,165.974,155.956z"/>
				<g>
					<path fill="#079D5C" d="M137.063,182.906c-3.103-3.103-3.103-8.151,0-11.254c3.103-3.103,8.151-3.103,11.254,0
						s3.103,8.151,0,11.254C145.213,186.009,140.165,186.009,137.063,182.906z M147.566,172.403c-2.689-2.689-7.064-2.689-9.753,0
						c-2.689,2.689-2.689,7.064,0,9.753c2.689,2.689,7.064,2.689,9.753,0C150.255,179.467,150.255,175.092,147.566,172.403z"/>
				</g>
				
					<line fill="none" stroke="#079D5C" stroke-width="1.2277" stroke-linejoin="round" stroke-miterlimit="10" x1="144.193" y1="157.494" x2="157.093" y2="170.394"/>
				
					<line fill="none" stroke="#079D5C" stroke-width="1.2277" stroke-linejoin="round" stroke-miterlimit="10" x1="140.667" y1="161.021" x2="153.566" y2="173.92"/>
				
					<line fill="none" stroke="#079D5C" stroke-width="1.2277" stroke-linejoin="round" stroke-miterlimit="10" x1="136.597" y1="165.09" x2="138.713" y2="167.206"/>
				
					<line fill="none" stroke="#079D5C" stroke-width="1.2277" stroke-linejoin="round" stroke-miterlimit="10" x1="132.528" y1="169.159" x2="134.644" y2="171.275"/>
			</g>
			<path fill="none" stroke="#079D5C" stroke-width="2.4555" stroke-linecap="round" stroke-miterlimit="10" d="M0.525,151.607
				c-4.121,4.121-8.461-0.22-12.582,3.901c-4.122,4.122,0.219,8.463-3.904,12.585c-4.121,4.121-8.462-0.22-12.582,3.901
				c-4.124,4.124,0.217,8.464-3.907,12.588s-8.464-0.217-12.588,3.907"/>
			<g>
				
					<rect x="31.08" y="165.754" transform="matrix(0.7071 0.7071 -0.7071 0.7071 134.4754 23.1885)" fill="none" stroke="#079D5C" stroke-width="2.4555" stroke-linecap="round" stroke-miterlimit="10" width="16.333" height="16.333"/>
				
					<rect x="46.172" y="153.328" transform="matrix(0.7071 0.7071 -0.7071 0.7071 138.6626 5.3345)" fill="none" stroke="#079D5C" stroke-width="2.4555" stroke-linecap="round" stroke-miterlimit="10" width="33.44" height="33.44"/>
			</g>
			<path fill="none" stroke="#079D5C" stroke-width="2.4555" stroke-linecap="round" stroke-miterlimit="10" d="M236.534,151.607
				c-4.121,4.121-8.461-0.22-12.582,3.901c-4.122,4.122,0.219,8.463-3.904,12.585c-4.121,4.121-8.462-0.22-12.582,3.901
				c-4.124,4.124,0.217,8.464-3.907,12.588s-8.464-0.217-12.588,3.907"/>
		</g>
	</g>
</g>
</svg>
