<?xml version="1.0" encoding="utf-8"?>
<!-- Generator: Adobe Illustrator 17.0.0, SVG Export Plug-In . SVG Version: 6.00 Build 0)  -->
<!DOCTYPE svg PUBLIC "-//W3C//DTD SVG 1.1//EN" "http://www.w3.org/Graphics/SVG/1.1/DTD/svg11.dtd">
<svg version="1.1" id="图层_1" xmlns="http://www.w3.org/2000/svg" xmlns:xlink="http://www.w3.org/1999/xlink" x="0px" y="0px"
	 width="236px" height="82px" viewBox="0 0 236 82" enable-background="new 0 0 236 82" xml:space="preserve">
<g>
	<g>
		<path fill="none" stroke="#079D5C" stroke-width="2.4555" stroke-miterlimit="10" d="M63.442,31.412l7.696,7.696
			c0.311,0.311,0.311,0.819,0,1.13L42.359,69.017c-0.311,0.311-0.819,0.311-1.13,0L15.105,42.892c-0.311-0.311-0.311-0.819,0-1.13
			l28.779-28.779c0.311-0.311,0.819-0.311,1.13,0l7.696,7.696"/>
		<polyline fill="none" stroke="#079D5C" stroke-width="1.2277" stroke-linejoin="round" stroke-miterlimit="10" points="
			59.393,35.461 63.568,39.636 41.757,61.447 22.674,42.364 44.485,20.553 48.66,24.728 		"/>
		<path fill="none" stroke="#079D5C" stroke-width="1.2277" stroke-linejoin="round" stroke-miterlimit="10" d="M64.556,26.909
			l-7.343-7.343c-0.936-0.936-2.453-0.936-3.389,0l-0.235,0.235L53.4,19.989l-6.1,6.1l10.732,10.732l6.1-6.1l0.188-0.188
			l0.235-0.235C65.492,29.362,65.492,27.845,64.556,26.909z"/>
		<g>
			<path fill="#079D5C" d="M35.645,53.859c-3.103-3.103-3.103-8.151,0-11.254c3.103-3.103,8.151-3.103,11.254,0
				c3.103,3.103,3.103,8.151,0,11.254C43.795,56.961,38.747,56.961,35.645,53.859z M46.148,43.355c-2.689-2.689-7.064-2.689-9.753,0
				c-2.689,2.689-2.689,7.064,0,9.753c2.689,2.689,7.064,2.689,9.753,0C48.837,50.419,48.837,46.044,46.148,43.355z"/>
			<polygon fill="#079D5C" points="46.447,48.232 43.562,49.655 43.099,52.839 40.854,50.535 37.683,51.079 39.18,48.232 
				37.683,45.384 40.854,45.928 43.099,43.625 43.562,46.808 			"/>
		</g>
		
			<line fill="none" stroke="#079D5C" stroke-width="1.2277" stroke-linejoin="round" stroke-miterlimit="10" x1="42.776" y1="28.446" x2="55.675" y2="41.346"/>
		
			<line fill="none" stroke="#079D5C" stroke-width="1.2277" stroke-linejoin="round" stroke-miterlimit="10" x1="39.249" y1="31.973" x2="52.148" y2="44.873"/>
		
			<line fill="none" stroke="#079D5C" stroke-width="1.2277" stroke-linejoin="round" stroke-miterlimit="10" x1="35.179" y1="36.042" x2="37.295" y2="38.158"/>
		
			<line fill="none" stroke="#079D5C" stroke-width="1.2277" stroke-linejoin="round" stroke-miterlimit="10" x1="31.11" y1="40.112" x2="33.226" y2="42.227"/>
	</g>
	<path fill="none" stroke="#079D5C" stroke-width="2.4555" stroke-linecap="round" stroke-miterlimit="10" d="M135.116,23.458
		c-4.121,4.121-8.461-0.22-12.582,3.901c-4.122,4.122,0.219,8.463-3.904,12.585c-4.121,4.121-8.462-0.22-12.582,3.901
		c-4.124,4.124,0.217,8.464-3.907,12.588c-4.124,4.124-8.464-0.217-12.588,3.907"/>
	
		<rect x="165.671" y="36.706" transform="matrix(0.7071 0.7071 -0.7071 0.7071 82.6456 -109.7789)" fill="none" stroke="#079D5C" stroke-width="2.4555" stroke-linecap="round" stroke-miterlimit="10" width="16.333" height="16.333"/>
	
		<rect x="180.763" y="24.28" transform="matrix(0.7071 0.7071 -0.7071 0.7071 86.8328 -127.633)" fill="none" stroke="#079D5C" stroke-width="2.4555" stroke-linecap="round" stroke-miterlimit="10" width="33.44" height="33.44"/>
</g>
</svg>
